# xmcd
#
# Track frame offsets:
#	150
#	14550
#	29172
#	43994
#	57865
#	72938
#	87773
#	101990
#	116363
#	130647
#
# Disc length: 1936 seconds
#
# Revision: 0
# Processed by: cddbd v1.5.2PL0 Copyright (c) Steve Scherf et al.
# Submitted via: EasyCDDAExtractor 16.0.6.1
#
DISCID=8b078e0a
DTITLE=Συλλογικός δίσκος - Ιστορία ρεμπέτικου και λαϊκού 04-4
DYEAR=2007
DGENRE=Ποικίλη
TTITLE0=Πολυμέρης Φώτης-Τσιτσάνης Βασίλης - Νύχτες μαγικές (Αραπίνες)[Βασ. Τσι
TTITLE0=τσάνης]
TTITLE1=Παγιουμτζής Στράτος-Κηρομύτης Στέλιος - Της μαστούρας ο σκοπός [Βασ. Τ
TTITLE1=σιτσάνης]
TTITLE2=Περπινιάδης Στελλάκης - Μπουζουκάκι [Μ. Χιώτης-Χ. Βασιλειάδης]
TTITLE3=Παγιουμτζής Στράτος-Τσιτσάνης Βασίλης - Χατζή μπαξές [Βασ. Τσιτσάνης]
TTITLE4=Παγιουμτζής Στράτος-Καπλάνης Κώστας - Το κομπολογάκι [Γ. Μητσάκης]
TTITLE5=Περδικόπουλος Δημήτρης-Παπαϊωάννου Γ. - Απ' της Ζέας το λιμάνι [Γ. Παπ
TTITLE5=αϊωάννου-Χ. Βασιλειάδης]
TTITLE6=Μητσάκης Γιώργος-Μανισαλής Γιώργος - Όταν καπνίζει ο λουλάς [Γ. Μητσάκ
TTITLE6=ης]
TTITLE7=Γεωργακοπούλου Ιωάννα-Μητσάκης Γ. - Ψιλή βροχούλα έπιασε [Γ. Μητσάκης]
TTITLE8=Παγιουμτζής Στράτος - Κάτσε ν' ακούσεις μιά πενιά [Βασ. Τσιτσάνης]
TTITLE9=Βαμβακάρης Μάρκος-Τσιτσάνης Βασίλης - Μάγκας βγήκε για σεργιάνι [Απ. Κ
TTITLE9=αλδάρας-Βασ. Τσιτσάνης]
EXTD=
EXTT0=
EXTT1=
EXTT2=
EXTT3=
EXTT4=
EXTT5=
EXTT6=
EXTT7=
EXTT8=
EXTT9=
PLAYORDER=
